<?xml version="1.0" encoding="UTF-8" standalone="no"?>
<svg
   xmlns:dc="http://purl.org/dc/elements/1.1/"
   xmlns:cc="http://creativecommons.org/ns#"
   xmlns:rdf="http://www.w3.org/1999/02/22-rdf-syntax-ns#"
   xmlns:svg="http://www.w3.org/2000/svg"
   xmlns="http://www.w3.org/2000/svg"
   xmlns:sodipodi="http://sodipodi.sourceforge.net/DTD/sodipodi-0.dtd"
   xmlns:inkscape="http://www.inkscape.org/namespaces/inkscape"
   width="19"
   height="21"
   viewBox="0 0 19 21"
   version="1.1"
   id="svg8"
   sodipodi:docname="add-image.svg"
   inkscape:version="0.92.3 (2405546, 2018-03-11)">
  <metadata
     id="metadata14">
    <rdf:RDF>
      <cc:Work
         rdf:about="">
        <dc:format>image/svg+xml</dc:format>
        <dc:type
           rdf:resource="http://purl.org/dc/dcmitype/StillImage" />
        <dc:title></dc:title>
      </cc:Work>
    </rdf:RDF>
  </metadata>
  <defs
     id="defs12" />
  <sodipodi:namedview
     pagecolor="#ffffff"
     bordercolor="#666666"
     borderopacity="1"
     objecttolerance="10"
     gridtolerance="10"
     guidetolerance="10"
     inkscape:pageopacity="0"
     inkscape:pageshadow="2"
     inkscape:window-width="1600"
     inkscape:window-height="851"
     id="namedview10"
     showgrid="false"
     inkscape:zoom="19.666667"
     inkscape:cx="13.447166"
     inkscape:cy="11.120673"
     inkscape:window-x="0"
     inkscape:window-y="25"
     inkscape:window-maximized="1"
     inkscape:current-layer="svg8"
     fit-margin-top="0"
     fit-margin-left="0"
     fit-margin-right="0"
     fit-margin-bottom="0" />
  <rect
     x="-4"
     width="24"
     height="24"
     id="rect2"
     y="1"
     style="fill:none" />
  <path
     inkscape:connector-curvature="0"
     id="path4"
     d="M 19,3 V 5 H 16 V 8 H 14 V 5 H 11 V 3 h 3 V 0 h 2 v 3 z m -8.5,7 C 11.328,10 12,9.328 12,8.5 12,7.672 11.328,7 10.5,7 9.672,7 9,7.672 9,8.5 9,9.328 9.672,10 10.5,10 Z m 3.5,3.234 -0.513,-0.57 c -0.794,-0.885 -2.18,-0.885 -2.976,0 L 9.856,13.394 5,8 2,11.333 V 5 H 9 V 3 H 2 C 0.895,3 0,3.895 0,5 v 12 c 0,1.105 0.895,2 2,2 h 12 c 1.105,0 2,-0.895 2,-2 v -7 h -2 z"
     style="fill:#ffffff" />
</svg>
