<?xml version="1.0" encoding="UTF-8" standalone="no"?>
<!-- Generator: Adobe Illustrator 19.0.0, SVG Export Plug-In . SVG Version: 6.00 Build 0)  -->

<svg
   xmlns:dc="http://purl.org/dc/elements/1.1/"
   xmlns:cc="http://creativecommons.org/ns#"
   xmlns:rdf="http://www.w3.org/1999/02/22-rdf-syntax-ns#"
   xmlns:svg="http://www.w3.org/2000/svg"
   xmlns="http://www.w3.org/2000/svg"
   xmlns:sodipodi="http://sodipodi.sourceforge.net/DTD/sodipodi-0.dtd"
   xmlns:inkscape="http://www.inkscape.org/namespaces/inkscape"
   version="1.1"
   id="Layer_1"
   x="0px"
   y="0px"
   viewBox="0 0 504.12999 234.654"
   xml:space="preserve"
   sodipodi:docname="logo.svg"
   inkscape:version="0.92.3 (2405546, 2018-03-11)"
   width="504.13"
   height="234.65401"><metadata
   id="metadata73"><rdf:RDF><cc:Work
       rdf:about=""><dc:format>image/svg+xml</dc:format><dc:type
         rdf:resource="http://purl.org/dc/dcmitype/StillImage" /><dc:title></dc:title></cc:Work></rdf:RDF></metadata><defs
   id="defs71">
	
	
	
</defs><sodipodi:namedview
   pagecolor="#ffffff"
   bordercolor="#666666"
   borderopacity="1"
   objecttolerance="10"
   gridtolerance="10"
   guidetolerance="10"
   inkscape:pageopacity="0"
   inkscape:pageshadow="2"
   inkscape:window-width="1600"
   inkscape:window-height="851"
   id="namedview69"
   showgrid="false"
   inkscape:zoom="0.46813228"
   inkscape:cx="256.3378"
   inkscape:cy="117.32749"
   inkscape:window-x="0"
   inkscape:window-y="25"
   inkscape:window-maximized="1"
   inkscape:current-layer="Layer_1"
   fit-margin-top="0"
   fit-margin-left="0"
   fit-margin-right="0"
   fit-margin-bottom="0" />
<g
   id="g18"
   transform="translate(0,-134.739)"
   style="fill:#ffffff">
	<path
   style="fill:#ffffff"
   d="m 38.313,161.221 c 2.584,-2.907 3.844,-6.073 3.844,-9.57 0,-8.767 -6.924,-15.644 -15.754,-15.644 H 2.379 C 1.056,136.007 0,137.07 0,138.378 v 49.538 c 0,1.292 1.056,2.355 2.379,2.355 h 24.34 c 9.287,0 17.124,-7.782 17.124,-16.998 0,-4.742 -2.064,-9.13 -5.53,-12.052 z m -23.449,7.554 h 9.657 c 1.89,0 3.513,1.662 3.513,3.631 0,2.048 -1.544,3.647 -3.513,3.647 h -9.657 z m 9.232,-13.8 h -9.232 v -4.955 h 9.232 c 1.41,0 2.584,1.126 2.584,2.473 -0.001,1.339 -1.182,2.482 -2.584,2.482 z"
   id="path2"
   inkscape:connector-curvature="0" />
	<path
   style="fill:#ffffff"
   d="M 93.318,136.007 H 71.499 c -1.308,0 -2.355,1.063 -2.355,2.371 v 49.538 c 0,1.292 1.048,2.355 2.355,2.355 h 10.122 c 1.308,0 2.371,-1.063 2.371,-2.355 V 175.73 h 4.261 c 6.081,0 8.909,5.876 8.909,9.862 v 2.324 c 0,1.292 1.071,2.355 2.371,2.355 h 10.122 c 1.308,0 2.371,-1.063 2.371,-2.355 v -2.844 c 0,-5.002 -1.725,-11.122 -6.294,-14.935 3.891,-4.049 6.294,-9.767 6.294,-15.305 0,-10.381 -8.397,-18.825 -18.708,-18.825 z m -9.326,14.013 h 6.695 c 3.167,0 5.845,2.678 5.845,5.845 0,3.23 -2.615,5.845 -5.845,5.845 h -6.695 z"
   id="path4"
   inkscape:connector-curvature="0" />
	<path
   style="fill:#ffffff"
   d="m 169.819,176.053 h -17.227 v -7.058 h 15.77 c 1.292,0 2.363,-1.063 2.363,-2.371 v -9.279 c 0,-1.308 -1.071,-2.371 -2.363,-2.371 h -15.77 v -4.742 h 16.801 c 1.323,0 2.371,-1.079 2.371,-2.371 v -9.492 c 0,-1.308 -1.048,-2.371 -2.371,-2.371 h -29.294 c -1.308,0 -2.355,1.063 -2.355,2.371 v 49.538 c 0,1.292 1.048,2.355 2.355,2.355 h 29.712 c 1.308,0 2.395,-1.063 2.395,-2.355 v -9.492 c -10e-4,-1.306 -1.08,-2.362 -2.387,-2.362 z"
   id="path6"
   inkscape:connector-curvature="0" />
	<path
   style="fill:#ffffff"
   d="m 219.821,136.141 c -0.378,-0.843 -1.229,-1.402 -2.166,-1.402 -0.937,0 -1.788,0.551 -2.158,1.402 l -22.449,50.798 c -0.323,0.725 -0.252,1.583 0.181,2.261 0.441,0.662 1.174,1.063 1.977,1.063 h 10.65 c 0.953,0 1.804,-0.551 2.182,-1.449 l 3.08,-7.294 h 13.186 l 2.97,7.278 c 0.362,0.874 1.229,1.465 2.206,1.465 h 10.626 0.047 c 1.308,0 2.371,-1.063 2.371,-2.355 0,-0.52 -0.158,-0.985 -0.417,-1.355 z m -2.166,28.199 1.489,3.489 h -2.97 z"
   id="path8"
   inkscape:connector-curvature="0" />
	<path
   style="fill:#ffffff"
   d="m 291.407,160.417 15.202,-20.645 c 0.528,-0.725 0.607,-1.678 0.197,-2.473 -0.402,-0.788 -1.213,-1.292 -2.103,-1.292 h -11.39 c -0.764,0 -1.489,0.37 -1.938,1.016 l -10.665,15.155 v -13.8 c 0,-1.308 -1.063,-2.371 -2.371,-2.371 h -10.106 c -1.308,0 -2.363,1.063 -2.363,2.371 v 49.538 c 0,1.292 1.055,2.355 2.363,2.355 h 10.106 c 1.308,0 2.371,-1.063 2.371,-2.355 v -13.233 l 1.449,-1.906 11.327,16.479 c 0.441,0.63 1.166,1.016 1.953,1.016 h 12.745 c 0.882,0 1.701,-0.488 2.111,-1.276 0.41,-0.803 0.331,-1.741 -0.181,-2.458 z"
   id="path10"
   inkscape:connector-curvature="0" />
	<path
   style="fill:#ffffff"
   d="m 345.899,136.007 h -10.122 c -1.3,0 -2.363,1.063 -2.363,2.371 v 49.538 c 0,1.292 1.063,2.355 2.363,2.355 h 10.122 c 1.308,0 2.379,-1.063 2.379,-2.355 v -49.538 c 0,-1.316 -1.071,-2.371 -2.379,-2.371 z"
   id="path12"
   inkscape:connector-curvature="0" />
	<path
   style="fill:#ffffff"
   d="m 419.556,136.007 h -9.476 c -1.308,0 -2.363,1.063 -2.363,2.371 v 18.873 l -17.44,-20.417 c -0.457,-0.536 -1.103,-0.827 -1.804,-0.827 h -8.846 c -1.308,0 -2.371,1.063 -2.371,2.371 v 49.538 c 0,1.292 1.063,2.355 2.371,2.355 h 9.492 c 1.3,0 2.363,-1.063 2.363,-2.355 v -28.767 l 26.27,31.539 c 0.457,0.551 1.134,0.843 1.804,0.843 0.284,0 0.544,-0.032 0.819,-0.142 0.937,-0.323 1.56,-1.229 1.56,-2.213 v -50.798 c 0,-1.316 -1.055,-2.371 -2.379,-2.371 z"
   id="path14"
   inkscape:connector-curvature="0" />
	<path
   style="fill:#ffffff"
   d="m 503.784,159.063 c -0.197,-1.142 -1.182,-1.985 -2.339,-1.985 h -26.663 c -1.323,0 -2.371,1.048 -2.371,2.371 v 9.279 c 0,1.308 1.048,2.355 2.371,2.355 h 11.729 c -2.111,3.324 -5.782,6.12 -11.106,6.12 -7.412,0 -13.225,-6.073 -13.225,-13.863 0,-7.83 5.805,-13.966 13.225,-13.966 4.348,0 8.342,2.064 10.689,5.506 0.37,0.536 0.929,0.89 1.552,1.016 0.654,0.11 1.276,-0.063 1.804,-0.449 l 8.334,-6.105 c 0.504,-0.37 0.843,-0.922 0.929,-1.552 0.11,-0.614 -0.055,-1.245 -0.433,-1.757 -5.388,-7.326 -13.296,-11.201 -22.875,-11.201 -15.77,0 -28.601,12.784 -28.601,28.507 0,15.659 12.832,28.396 28.601,28.396 15.841,0 28.719,-12.737 28.719,-28.396 0.007,-1.472 -0.103,-2.859 -0.34,-4.276 z"
   id="path16"
   inkscape:connector-curvature="0" />
</g>
<path
   style="fill:#f0e6e1;fill-opacity:1"
   d="M 113.16,84.338 H 94.161 c -2.56,0 -4.647,2.08 -4.647,4.663 v 74.216 L 26.924,86.047 C 25.995,84.968 24.663,84.338 23.253,84.338 H 4.624 c -2.552,0 -4.616,2.08 -4.616,4.663 v 138.634 c 0,2.568 2.064,4.647 4.616,4.647 H 23.67 c 2.576,0 4.671,-2.079 4.671,-4.647 v -91.758 l 81.266,97.091 c 0.906,1.095 2.206,1.678 3.552,1.678 0.551,0 1.079,-0.063 1.583,-0.26 1.851,-0.677 3.08,-2.434 3.08,-4.387 V 89.001 c 10e-4,-2.584 -2.102,-4.663 -4.662,-4.663 z"
   id="path20"
   inkscape:connector-curvature="0" />
<path
   inkscape:connector-curvature="0"
   id="path22"
   d="m 223.87,203.153 h -57.155 v -37.581 h 53.153 c 2.607,0 4.71,-2.095 4.71,-4.695 v -19.015 c 0,-2.552 -2.103,-4.632 -4.71,-4.632 h -53.153 v -24.149 h 55.958 c 2.568,0 4.679,-2.095 4.679,-4.679 V 89.001 c 0,-2.584 -2.111,-4.663 -4.679,-4.663 h -80.801 c -2.552,0 -4.647,2.08 -4.647,4.663 v 138.634 c 0,2.568 2.095,4.647 4.647,4.647 h 81.999 c 2.544,0 4.647,-2.079 4.647,-4.647 v -19.803 c -0.001,-2.583 -2.104,-4.679 -4.648,-4.679 z"
   style="fill:#fbc1bb;fill-opacity:1" /><path
   inkscape:connector-curvature="0"
   id="path24"
   d="m 388.592,84.338 h -21.173 c -1.875,0 -3.584,1.15 -4.34,2.907 L 331.571,164.77 300.048,87.245 c -0.717,-1.757 -2.426,-2.907 -4.301,-2.907 h -21.22 c -1.536,0 -3.001,0.772 -3.86,2.048 -0.882,1.292 -1.024,2.907 -0.433,4.356 l 26.805,66.741 -3.04,7.373 -31.602,-77.603 c -0.701,-1.757 -2.402,-2.907 -4.293,-2.907 h -21.22 c -1.528,0 -3.009,0.772 -3.82,2.048 -0.866,1.292 -1.063,2.907 -0.473,4.372 l 57.021,140.981 c 0.709,1.772 2.418,2.907 4.309,2.907 v 0 c 1.89,0 3.623,-1.142 4.356,-2.891 l 14.486,-35.722 14.501,35.722 c 0.709,1.757 2.395,2.891 4.309,2.891 v 0 c 1.883,0 3.616,-1.142 4.34,-2.907 l 56.99,-140.981 c 0.591,-1.465 0.425,-3.08 -0.425,-4.372 -0.885,-1.284 -2.342,-2.056 -3.886,-2.056 z"
   style="fill:#fbc1bb;fill-opacity:1" /><path
   inkscape:connector-curvature="0"
   id="path26"
   d="m 460.272,143.557 h -20.393 c -8.578,0 -15.525,-6.971 -15.525,-15.525 0,-8.57 6.947,-15.557 15.525,-15.557 h 41.771 c 2.56,0 4.655,-2.095 4.655,-4.663 V 88.994 c 0,-2.584 -2.095,-4.663 -4.655,-4.663 h -44.158 c -23.725,0 -43.047,19.417 -43.047,43.26 0,24.001 19.7,44.292 43.047,44.292 h 19.251 c 9.5,0 16.691,6.751 16.691,15.754 0,8.846 -7.192,15.51 -16.691,15.51 h -50.145 c -2.544,0 -4.64,2.095 -4.64,4.679 v 19.803 c 0,2.568 2.095,4.647 4.64,4.647 h 53.673 c 24.166,0 43.859,-20.11 43.859,-44.828 10e-4,-24.215 -19.691,-43.891 -43.858,-43.891 z"
   style="fill:#fbc1bb;fill-opacity:1" />
<g
   id="g36"
   style="fill:#f0e6e1;fill-opacity:1"
   transform="translate(0,-134.739)">
	<path
   style="fill:#f0e6e1;fill-opacity:1"
   d="m 262.404,221.991 c -0.701,-1.757 -2.402,-2.907 -4.293,-2.907 h -21.22 c -1.528,0 -3.009,0.772 -3.82,2.048 -0.866,1.292 -1.063,2.907 -0.473,4.372 l 17.306,42.795 22.284,-22.284 z"
   id="path30"
   inkscape:connector-curvature="0" />
	<path
   style="fill:#f0e6e1;fill-opacity:1"
   d="m 295.755,219.077 h -21.22 c -1.536,0 -3.001,0.772 -3.86,2.048 -0.882,1.292 -1.024,2.907 -0.433,4.356 l 6.443,16.03 21.638,-21.638 c -0.749,-0.497 -1.639,-0.796 -2.568,-0.796 z"
   id="path32"
   inkscape:connector-curvature="0" />
	<path
   style="fill:#f0e6e1;fill-opacity:1"
   d="m 219.869,271.97 h -53.153 v -24.15 h 55.958 c 2.568,0 4.679,-2.095 4.679,-4.679 V 223.74 c 0,-2.584 -2.111,-4.663 -4.679,-4.663 h -80.801 c -2.552,0 -4.647,2.08 -4.647,4.663 v 138.634 c 0,2.568 2.095,4.647 4.647,4.647 h 9.311 L 180.305,337.9 h -13.588 v -37.581 h 51.169 l 6.695,-6.695 V 276.61 c -0.002,-2.56 -2.105,-4.64 -4.712,-4.64 z"
   id="path34"
   inkscape:connector-curvature="0" />
</g>
<g
   id="g38"
   transform="translate(0,-134.739)">
</g>
<g
   id="g40"
   transform="translate(0,-134.739)">
</g>
<g
   id="g42"
   transform="translate(0,-134.739)">
</g>
<g
   id="g44"
   transform="translate(0,-134.739)">
</g>
<g
   id="g46"
   transform="translate(0,-134.739)">
</g>
<g
   id="g48"
   transform="translate(0,-134.739)">
</g>
<g
   id="g50"
   transform="translate(0,-134.739)">
</g>
<g
   id="g52"
   transform="translate(0,-134.739)">
</g>
<g
   id="g54"
   transform="translate(0,-134.739)">
</g>
<g
   id="g56"
   transform="translate(0,-134.739)">
</g>
<g
   id="g58"
   transform="translate(0,-134.739)">
</g>
<g
   id="g60"
   transform="translate(0,-134.739)">
</g>
<g
   id="g62"
   transform="translate(0,-134.739)">
</g>
<g
   id="g64"
   transform="translate(0,-134.739)">
</g>
<g
   id="g66"
   transform="translate(0,-134.739)">
</g>
</svg>